<svg xmlns="http://www.w3.org/2000/svg" width="157" height="225" viewBox="0 0 157 225"><g fill="#4A90E2" fill-opacity=".176" fill-rule="evenodd" transform="translate(-85)"><circle cx="87" cy="2" r="2"/><circle cx="87" cy="19" r="2"/><circle cx="104" cy="2" r="2"/><circle cx="104" cy="19" r="2"/><circle cx="121" cy="2" r="2"/><circle cx="121" cy="19" r="2"/><circle cx="138" cy="2" r="2"/><circle cx="138" cy="19" r="2"/><circle cx="155" cy="2" r="2"/><circle cx="155" cy="19" r="2"/><circle cx="172" cy="2" r="2"/><circle cx="172" cy="19" r="2"/><circle cx="189" cy="2" r="2"/><circle cx="189" cy="19" r="2"/><circle cx="206" cy="2" r="2"/><circle cx="206" cy="19" r="2"/><circle cx="223" cy="2" r="2"/><circle cx="223" cy="19" r="2"/><circle cx="240" cy="2" r="2"/><circle cx="240" cy="19" r="2"/><circle cx="87" cy="36" r="2"/><circle cx="104" cy="36" r="2"/><circle cx="121" cy="36" r="2"/><circle cx="138" cy="36" r="2"/><circle cx="155" cy="36" r="2"/><circle cx="172" cy="36" r="2"/><circle cx="189" cy="36" r="2"/><circle cx="206" cy="36" r="2"/><circle cx="223" cy="36" r="2"/><circle cx="240" cy="36" r="2"/><circle cx="87" cy="53" r="2"/><circle cx="104" cy="53" r="2"/><circle cx="121" cy="53" r="2"/><circle cx="138" cy="53" r="2"/><circle cx="155" cy="53" r="2"/><circle cx="172" cy="53" r="2"/><circle cx="189" cy="53" r="2"/><circle cx="206" cy="53" r="2"/><circle cx="223" cy="53" r="2"/><circle cx="240" cy="53" r="2"/><circle cx="87" cy="70" r="2"/><circle cx="104" cy="70" r="2"/><circle cx="121" cy="70" r="2"/><circle cx="138" cy="70" r="2"/><circle cx="155" cy="70" r="2"/><circle cx="172" cy="70" r="2"/><circle cx="189" cy="70" r="2"/><circle cx="206" cy="70" r="2"/><circle cx="223" cy="70" r="2"/><circle cx="240" cy="70" r="2"/><circle cx="87" cy="87" r="2"/><circle cx="104" cy="87" r="2"/><circle cx="121" cy="87" r="2"/><circle cx="138" cy="87" r="2"/><circle cx="155" cy="87" r="2"/><circle cx="172" cy="87" r="2"/><circle cx="189" cy="87" r="2"/><circle cx="206" cy="87" r="2"/><circle cx="223" cy="87" r="2"/><circle cx="240" cy="87" r="2"/><circle cx="87" cy="104" r="2"/><circle cx="104" cy="104" r="2"/><circle cx="121" cy="104" r="2"/><circle cx="138" cy="104" r="2"/><circle cx="155" cy="104" r="2"/><circle cx="172" cy="104" r="2"/><circle cx="189" cy="104" r="2"/><circle cx="206" cy="104" r="2"/><circle cx="223" cy="104" r="2"/><circle cx="240" cy="104" r="2"/><circle cx="87" cy="121" r="2"/><circle cx="104" cy="121" r="2"/><circle cx="121" cy="121" r="2"/><circle cx="138" cy="121" r="2"/><circle cx="155" cy="121" r="2"/><circle cx="172" cy="121" r="2"/><circle cx="189" cy="121" r="2"/><circle cx="206" cy="121" r="2"/><circle cx="223" cy="121" r="2"/><circle cx="240" cy="121" r="2"/><circle cx="87" cy="138" r="2"/><circle cx="104" cy="138" r="2"/><circle cx="121" cy="138" r="2"/><circle cx="138" cy="138" r="2"/><circle cx="155" cy="138" r="2"/><circle cx="172" cy="138" r="2"/><circle cx="189" cy="138" r="2"/><circle cx="206" cy="138" r="2"/><circle cx="223" cy="138" r="2"/><circle cx="240" cy="138" r="2"/><circle cx="87" cy="155" r="2"/><circle cx="104" cy="155" r="2"/><circle cx="121" cy="155" r="2"/><circle cx="138" cy="155" r="2"/><circle cx="155" cy="155" r="2"/><circle cx="172" cy="155" r="2"/><circle cx="189" cy="155" r="2"/><circle cx="206" cy="155" r="2"/><circle cx="223" cy="155" r="2"/><circle cx="240" cy="155" r="2"/><circle cx="87" cy="172" r="2"/><circle cx="104" cy="172" r="2"/><circle cx="121" cy="172" r="2"/><circle cx="138" cy="172" r="2"/><circle cx="155" cy="172" r="2"/><circle cx="172" cy="172" r="2"/><circle cx="189" cy="172" r="2"/><circle cx="206" cy="172" r="2"/><circle cx="223" cy="172" r="2"/><circle cx="240" cy="172" r="2"/><circle cx="87" cy="189" r="2"/><circle cx="104" cy="189" r="2"/><circle cx="121" cy="189" r="2"/><circle cx="138" cy="189" r="2"/><circle cx="155" cy="189" r="2"/><circle cx="172" cy="189" r="2"/><circle cx="189" cy="189" r="2"/><circle cx="206" cy="189" r="2"/><circle cx="223" cy="189" r="2"/><circle cx="240" cy="189" r="2"/><circle cx="87" cy="206" r="2"/><circle cx="104" cy="206" r="2"/><circle cx="121" cy="206" r="2"/><circle cx="138" cy="206" r="2"/><circle cx="155" cy="206" r="2"/><circle cx="172" cy="206" r="2"/><circle cx="189" cy="206" r="2"/><circle cx="206" cy="206" r="2"/><circle cx="223" cy="206" r="2"/><circle cx="240" cy="206" r="2"/><circle cx="87" cy="223" r="2"/><circle cx="104" cy="223" r="2"/><circle cx="121" cy="223" r="2"/><circle cx="138" cy="223" r="2"/><circle cx="155" cy="223" r="2"/><circle cx="172" cy="223" r="2"/><circle cx="189" cy="223" r="2"/><circle cx="206" cy="223" r="2"/><circle cx="223" cy="223" r="2"/><circle cx="240" cy="223" r="2"/></g></svg>